RBDS016runT25_grf
version=1
nRows=15
nColumns=19
inDegrees=no
endheader
time	ground_force_r_vx	ground_force_r_vy	ground_force_r_vz	ground_force_r_px	ground_force_r_py	ground_force_r_pz	ground_force_r_mx	ground_force_r_my	ground_force_r_mz	ground_force_l_vx	ground_force_l_vy	ground_force_l_vz	ground_force_l_px	ground_force_l_py	ground_force_l_pz	ground_force_l_mx	ground_force_l_my	ground_force_l_mz
      0.00000000	      0.00000000	      0.00000000	      0.00000000	      0.00000000	      0.00000000	      0.00000000	      0.00000000	      0.00000000	      0.00000000	      3.87626553	   1440.98015767	     71.30414803	      2.32969730	      0.00000000	      1.00670304	     -0.00000000	      9.72359055	     -0.00000000
      0.00100000	      0.00000000	      0.00000000	      0.00000000	      0.00000000	      0.00000000	      0.00000000	      0.00000000	      0.00000000	      0.00000000	      6.37414945	   1424.77873557	     69.97880812	      2.32845489	      0.00000000	      1.00660817	     -0.00000000	      9.68727490	     -0.00000000
      0.00200000	      0.00000000	      0.00000000	      0.00000000	      0.00000000	      0.00000000	      0.00000000	      0.00000000	      0.00000000	      0.00000000	      8.87203337	   1408.57731348	     68.65346821	      2.32721249	      0.00000000	      1.00651329	     -0.00000000	      9.65095924	     -0.00000000
      0.00300000	      0.00000000	      0.00000000	      0.00000000	      0.00000000	      0.00000000	      0.00000000	      0.00000000	      0.00000000	      0.00000000	     11.36991729	   1392.37589138	     67.32812830	      2.32597008	      0.00000000	      1.00641842	     -0.00000000	      9.61464359	     -0.00000000
      0.00400000	      0.00000000	      0.00000000	      0.00000000	      0.00000000	      0.00000000	      0.00000000	      0.00000000	      0.00000000	      0.00000000	     13.88841257	   1376.21852840	     65.99176477	      2.32472393	      0.00000000	      1.00632504	     -0.00000000	      9.57576915	     -0.00000000
      0.00500000	      0.00000000	      0.00000000	      0.00000000	      0.00000000	      0.00000000	      0.00000000	      0.00000000	      0.00000000	      0.00000000	     16.41721353	   1360.08319497	     64.64988944	      2.32347591	      0.00000000	      1.00623240	     -0.00000000	      9.53561532	     -0.00000000
      0.00600000	      0.00000000	      0.00000000	      0.00000000	      0.00000000	      0.00000000	      0.00000000	      0.00000000	      0.00000000	      0.00000000	     18.94601449	   1343.94786155	     63.30801410	      2.32222789	      0.00000000	      1.00613976	     -0.00000000	      9.49546150	     -0.00000000
      0.00700000	      0.00000000	      0.00000000	      0.00000000	      0.00000000	      0.00000000	      0.00000000	      0.00000000	      0.00000000	      0.00000000	     21.48279020	   1327.85423527	     61.95990492	      2.32097502	      0.00000000	      1.00604824	     -0.00000000	      9.45358017	     -0.00000000
      0.00800000	      0.00000000	      0.00000000	      0.00000000	      0.00000000	      0.00000000	      0.00000000	      0.00000000	      0.00000000	      0.00000000	     24.03551545	   1311.84402327	     60.59932802	      2.31971245	      0.00000000	      1.00595895	     -0.00000000	      9.40824384	     -0.00000000
      0.00900000	      0.00000000	      0.00000000	      0.00000000	      0.00000000	      0.00000000	      0.00000000	      0.00000000	      0.00000000	      0.00000000	     26.58824069	   1295.83381128	     59.23875113	      2.31844988	      0.00000000	      1.00586966	     -0.00000000	      9.36290751	     -0.00000000
      0.01000000	      0.00000000	      0.00000000	      0.00000000	      0.00000000	      0.00000000	      0.00000000	      0.00000000	      0.00000000	      0.00000000	     29.14096593	   1279.82359929	     57.87817424	      2.31718731	      0.00000000	      1.00578037	     -0.00000000	      9.31757119	     -0.00000000
      0.01100000	      0.00000000	      0.00000000	      0.00000000	      0.00000000	      0.00000000	      0.00000000	      0.00000000	      0.00000000	      0.00000000	     31.70880536	   1263.98955557	     56.49756296	      2.31590138	      0.00000000	      1.00569553	     -0.00000000	      9.26574186	      0.00000000
      0.01200000	      0.00000000	      0.00000000	      0.00000000	      0.00000000	      0.00000000	      0.00000000	      0.00000000	      0.00000000	      0.00000000	     34.27664479	   1248.15551186	     55.11695169	      2.31461545	      0.00000000	      1.00561069	     -0.00000000	      9.21391254	      0.00000000
      0.01300000	      0.00000000	      0.00000000	      0.00000000	      0.00000000	      0.00000000	      0.00000000	      0.00000000	      0.00000000	      0.00000000	     36.84448423	   1232.32146814	     53.73634041	      2.31332953	      0.00000000	      1.00552585	     -0.00000000	      9.16208322	      0.00000000
      0.01400000	      0.00000000	      0.00000000	      0.00000000	      0.00000000	      0.00000000	      0.00000000	      0.00000000	      0.00000000	      0.00000000	     39.41498034	   1216.63363367	     52.34232616	      2.31202261	      0.00000000	      1.00544470	     -0.00000000	      9.10511607	      0.00000000
